<svg width="669" height="60" viewBox="0 0 669 60" fill="none" xmlns="http://www.w3.org/2000/svg">
<path fill-rule="evenodd" clip-rule="evenodd" d="M422.162 9.67899L445.12 32.0861L443.564 33.6796L420.606 11.2725L422.162 9.67899Z" fill="#2A12FB"/>
<path fill-rule="evenodd" clip-rule="evenodd" d="M377.629 9.67899L400.586 32.0861L399.031 33.6796L376.073 11.2725L377.629 9.67899Z" fill="#2A12FB"/>
<path fill-rule="evenodd" clip-rule="evenodd" d="M359.815 9.67899L382.773 32.0861L381.218 33.6796L358.26 11.2725L359.815 9.67899Z" fill="#2A12FB"/>
<path fill-rule="evenodd" clip-rule="evenodd" d="M249.151 9.67899L226.193 32.0861L227.749 33.6796L250.707 11.2725L249.151 9.67899Z" fill="#2A12FB"/>
<path fill-rule="evenodd" clip-rule="evenodd" d="M293.685 9.67899L270.728 32.0861L272.283 33.6796L295.241 11.2725L293.685 9.67899Z" fill="#2A12FB"/>
<path fill-rule="evenodd" clip-rule="evenodd" d="M311.499 9.67899L288.541 32.0861L290.096 33.6796L313.054 11.2725L311.499 9.67899Z" fill="#2A12FB"/>
<path fill-rule="evenodd" clip-rule="evenodd" d="M247.703 9.36237L294.463 9.36237L294.463 11.5891L247.703 11.5891L247.703 9.36237Z" fill="#2A12FB"/>
<path fill-rule="evenodd" clip-rule="evenodd" d="M376.851 9.36237L423.611 9.36237L423.611 11.5891L376.851 11.5891L376.851 9.36237Z" fill="#2A12FB"/>
<path d="M439.197 28.4295H445.877V35.1096H439.197V28.4295Z" fill="#07F0FF"/>
<path d="M394.664 28.4295H401.344V35.1096H394.664V28.4295Z" fill="#07F0FF"/>
<path d="M477.052 28.4295H483.732V35.1096H477.052V28.4295Z" fill="#07F0FF"/>
<path d="M232.116 28.4295H225.436V35.1096H232.116V28.4295Z" fill="#07F0FF"/>
<path d="M276.65 28.4295H269.97V35.1096H276.65V28.4295Z" fill="#07F0FF"/>
<path d="M192.036 28.2892H185.356V34.9692H192.036V28.2892Z" fill="#07F0FF"/>
<path fill-rule="evenodd" clip-rule="evenodd" d="M483.731 31.6292L644.053 31.6292L644.053 33.8559L483.731 33.8559L483.731 31.6292Z" fill="#2A12FB"/>
<path fill-rule="evenodd" clip-rule="evenodd" d="M644.139 31.9458L667.097 54.353L665.542 55.9465L642.584 33.5393L644.139 31.9458Z" fill="#2A12FB"/>
<path d="M668.546 52.6425H661.866V59.3225H668.546V52.6425Z" fill="#07F0FF"/>
<path fill-rule="evenodd" clip-rule="evenodd" d="M185.356 31.6292L25.0352 31.6292L25.0352 33.8559L185.356 33.8559L185.356 31.6292Z" fill="#2A12FB"/>
<path fill-rule="evenodd" clip-rule="evenodd" d="M24.9486 31.9458L1.99072 54.353L3.546 55.9465L26.5039 33.5393L24.9486 31.9458Z" fill="#2A12FB"/>
<path d="M0.541504 52.6425H7.22156V59.3225H0.541504V52.6425Z" fill="#07F0FF"/>
<path fill-rule="evenodd" clip-rule="evenodd" d="M309.429 34.2858L306.219 31.1992L335.657 0.582987L365.096 31.1992L361.886 34.2858L335.657 7.0082L309.429 34.2858Z" fill="url(#paint0_linear)"/>
<defs>
<linearGradient id="paint0_linear" x1="306.219" y1="17.4344" x2="365.096" y2="17.4344" gradientUnits="userSpaceOnUse">
<stop stop-color="#CE44D5"/>
<stop offset="1" stop-color="#34F2FE"/>
</linearGradient>
</defs>
</svg>
